<?xml version="1.0" encoding="UTF-8" standalone="no"?>
<svg
   xmlns:dc="http://purl.org/dc/elements/1.1/"
   xmlns:cc="http://creativecommons.org/ns#"
   xmlns:rdf="http://www.w3.org/1999/02/22-rdf-syntax-ns#"
   xmlns:svg="http://www.w3.org/2000/svg"
   xmlns="http://www.w3.org/2000/svg"
   xmlns:xlink="http://www.w3.org/1999/xlink"
   height="187.69057"
   width="184.32327"
   id="svg19"
   version="1.1"
   viewBox="0 0 184.32327 187.69057"
   xml:space="preserve"
   style="clip-rule:evenodd;fill-rule:evenodd;image-rendering:optimizeQuality;shape-rendering:geometricPrecision;text-rendering:geometricPrecision">
 <defs
   id="defs12"><linearGradient
   id="linearGradient2580"><stop
     id="stop2576"
     offset="0"
     style="stop-color:#2e80fe;stop-opacity:1;" /><stop
     id="stop2578"
     offset="1"
     style="stop-color:#2e80fe;stop-opacity:0;" /></linearGradient>
  <style
   id="style10"
   type="text/css">
    .fil0 {fill:#291C6F}
  </style>
 <radialGradient
   gradientUnits="userSpaceOnUse"
   gradientTransform="matrix(1,0,0,1.0182685,0,-2.7128734)"
   r="92.161633"
   fy="148.50029"
   fx="104.99687"
   cy="148.50029"
   cx="104.99687"
   id="radialGradient2582"
   xlink:href="#linearGradient2580" /></defs>
 <g
   style="fill:#2f9afe;fill-opacity:1"
   transform="matrix(0.98099882,0,0,0.98133972,-10.84017,-51.883943)"
   id="Слой_x0020_1">
  <path
   style="fill:#2f9afe;fill-opacity:1"
   id="path14"
   d="m 44.96,54.655 c 8.7537,35.781 39.788,60.272 47.298,83.477 8.8332,23.865 4.1095,37.202 0.7815,55.245 0.9408,-0.8812 8.6269,-14.185 27.181,-23.233 24.805,-13.179 56.338,-8.0721 76.938,-25.291 -2.4803,2.9978 -19.161,40.496 -27.635,42.119 0.3269,7.8521 -5.0763,9.071 -8.0394,9.8529 0.1363,7.4448 -5.592,8.4905 -8.817,8.2796 0.1772,2.3164 -0.5622,8.6413 -8.268,8.2086 -1.7195,4.0001 -5.2958,5.3312 -7.6944,5.9483 -8.3997,2.1609 -25.554,-6.5714 -32.91,-11.498 4.2187,2.9732 12.672,9.5447 15.308,18.184 1.1443,3.7507 2.7209,14.554 -1.6268,15.485 -2.0679,1.2794 -6.9766,1.4472 -9.51,-1.0231 -4.3876,2.266 -7.5207,0.3421 -10.606,-1.7702 -2.2741,0.1694 -4.4768,0.1439 -6.1935,-1.6119 -5.1689,-5.2867 -4.4799,-20.543 -2.1608,-33.797 -16.877,11.983 -39.176,22.692 -59.904,19.586 -5.227,-0.9864 -6.9722,-3.1784 -6.013,-9.5414 -4.6005,-2.7016 -6.1909,-7.9855 -3.3153,-11.831 -2.6961,-1.3146 -8.9765,-8.2892 -6.279,-13.717 0.6252,-1.2579 2.0313,-3.3432 5.8623,-4.1175 16.079,-5.757 39.037,4.9682 47.184,7.4429 0,0 -10.512,-4.3461 -24.783,-12.777 -8.4942,-5.0179 -23.655,-16.216 -20.628,-29.119 -2.2163,-2.6404 -5.1482,-11.626 0.5359,-16.503 -0.8404,-1.4786 -4.8532,-10.066 2.3144,-15.508 -2.6767,-8.2782 1.3855,-12.504 3.6313,-13.713 -1.4704,-14.257 16.097,-33.263 17.348,-48.777 z m 55.168,149.2 c 5.6937,2.5963 9.1698,3.4139 13.757,4.0198 1.3274,0.1753 5.0473,0.3235 7.0794,-0.2397 2.0809,-0.9756 1.3973,-1.8381 0.1652,-3.1759 2.6635,1.1033 9.7874,-0.7887 6.3115,-4.2914 2.3868,0.886 4.9147,0.7734 4.0844,3.3369 -1.5486,2.2107 -4.2679,2.4675 -6.669,1.752 1.569,1.5952 0.8497,2.6888 -0.1678,3.2785 -3.1554,1.6823 -7.7831,1.349 -10.152,0.7646 -5.1387,-1.3415 -9.3015,-2.3171 -14.409,-5.4448 z M 77.006,193.21 c -6.5671,-3.737 -13.309,-7.6514 -17.704,-11.415 -3.1883,-2.7302 -5.1818,-5.2958 -4.7879,-8.0703 0.2503,-1.5219 2.1194,-1.6938 4.3001,-1.4338 -1.4027,-0.8263 -4.2032,-4.2083 -3.436,-6.999 0.7345,-1.8684 1.5177,-2.4027 4.1874,-2.2425 -2.5549,-1.7096 -5.343,-3.3347 -7.265,-0.7095 -1.1953,2.5809 0.2851,5.1363 2.7286,6.9731 -2.3943,-0.4832 -4.2124,0.3147 -4.524,2.0603 -0.7341,3.9486 2.4265,7.8543 7.8031,11.518 5.1405,3.7752 12.025,7.5313 18.698,10.318 z m 31.51,21.478 c 1.9602,3.7374 4.7043,6.8791 5.5157,12.228 0.2459,1.6206 0.5062,4.5732 -0.8897,6.7837 -2.0728,2.0542 -4.0654,1.0736 -5.9723,0.0481 -1.1244,2.2291 -5.2062,2.0801 -6.4008,0.4092 1.1307,2.4907 2.5455,3.4533 5.241,3.4345 1.2267,-0.1877 2.6465,-1.3438 2.6312,-2.1829 1.7385,2.3562 3.797,2.7956 5.7307,1.4297 2.5493,-2.7846 1.5588,-7.2165 1.2407,-8.8431 -2.0713,-7.0847 -3.7112,-8.9138 -7.0965,-13.307 z M 53.788,189.323 c -5.0221,-1.6383 -15.18,-2.1114 -21.699,-0.8238 -1.9403,0.3832 -7.2544,2.6224 -7.9628,5.563 -0.7082,2.9405 1.778,4.8101 3.5483,5.8133 -3.4258,3.2693 -1.4902,9.0811 1.283,9.5241 -6.5144,-0.9951 -6.5268,-4.4462 -6.5982,-6.2347 -0.0714,-1.7885 1.2366,-4.264 2.2131,-4.542 -3.3816,-1.3594 -6.4257,-4.2194 -4.5127,-7.7132 1.412,-2.7423 5.6634,-3.6592 8.0162,-4.2043 2.3528,-0.5451 16.185,-1.7157 25.712,2.6176 z"
   class="fil0" />
 </g>
<metadata
   id="metadata17"><rdf:RDF><cc:Work><dc:format>image/svg+xml</dc:format><dc:type
         rdf:resource="http://purl.org/dc/dcmitype/StillImage" /><cc:license
         rdf:resource="http://creativecommons.org/publicdomain/zero/1.0/" /><dc:publisher><cc:Agent
           rdf:about="http://openclipart.org/"><dc:title>Openclipart</dc:title></cc:Agent></dc:publisher><dc:title></dc:title><dc:date>2011-07-12T04:44:32</dc:date><dc:description /><dc:source>https://openclipart.org/detail/149131/butterfly-by-lantaire</dc:source><dc:creator><cc:Agent><dc:title>Lantaire</dc:title></cc:Agent></dc:creator><dc:subject><rdf:Bag><rdf:li>butterfly</rdf:li></rdf:Bag></dc:subject></cc:Work><cc:License
       rdf:about="http://creativecommons.org/publicdomain/zero/1.0/"><cc:permits
         rdf:resource="http://creativecommons.org/ns#Reproduction" /><cc:permits
         rdf:resource="http://creativecommons.org/ns#Distribution" /><cc:permits
         rdf:resource="http://creativecommons.org/ns#DerivativeWorks" /></cc:License></rdf:RDF></metadata></svg>